<svg xmlns="http://www.w3.org/2000/svg" width="32" height="32" fill="none" viewBox="0 0 32 32"><rect width="32" height="32" fill="#F1F6FC" rx="6"/><path fill="#B22EC8" d="M8.867 11.35s-1.147.689-1.403 1.82c-.255 1.133 0 2.372 0 2.372s-1.798.742-1.798 3.075 1.517 2.992 1.517 2.992.018 2.754 1.715 4.239c1.697 1.484 3.478 1.492 3.478 1.492s.927 1.959 3.652 1.959c2.724 0 3.651-1.96 3.651-1.96s1.845-.269 3.478-1.491c1.634-1.223 1.59-4.239 1.59-4.239s1.642-.659 1.642-2.992-1.798-3.074-1.798-3.074.256-1.24 0-2.372c-.257-1.132-1.403-1.82-1.403-1.82"/><path fill="#B22EC8" d="M24.643 14.857c0-4.764-3.862-6.106-8.625-6.106-4.764 0-8.626 1.342-8.626 6.106a8.626 8.626 0 0 0 17.252 0Z"/><path fill="#6A107A" d="M16.292 29.292s2.332-1.63 2.18-5.382c1.003-1.044 1.314-2.446.403-4.15 1.54-2.194 1.38-4.567-.462-6.366.759-1.095.362-2.044-.496-2.756 0 0 2.469 1.21 4.36-.52 0 0 3.975 2.857 2.314 5.425 0 0 4.388 2.965.155 6.066 0 0 .619 4.727-4.96 5.711 0 0-1.468 1.663-3.494 1.972Z"/><path fill="#0F805D" d="M24.791 5.005c-1.898 8.857-7.722 5.837-8.514 4.28-.79-1.558-.026-7.759 8.514-4.28Z"/><path fill="#0F805D" d="M7.264 5.005c1.898 8.857 7.722 5.837 8.514 4.28.79-1.558.026-7.759-8.514-4.28Z"/><path stroke="#000" stroke-linecap="round" stroke-linejoin="round" stroke-miterlimit="10" stroke-width="2" d="M24.791 5.005c-1.898 8.857-7.722 5.837-8.514 4.28-.79-1.558-.026-7.759 8.514-4.28Z"/><path stroke="#000" stroke-linecap="round" stroke-linejoin="round" stroke-miterlimit="10" stroke-width="2" d="M20.254 6.797c-1.39.535-3.173 1.394-3.962 2.514M7.264 5.005c1.898 8.857 7.722 5.837 8.514 4.28.79-1.558.026-7.759-8.514-4.28Z"/><path stroke="#000" stroke-linecap="round" stroke-linejoin="round" stroke-miterlimit="10" stroke-width="2" d="M11.8 6.797c1.392.535 3.174 1.394 3.963 2.514m-6.896 2.04s-1.147.688-1.403 1.82c-.255 1.132 0 2.371 0 2.371s-1.798.742-1.798 3.075 1.517 2.992 1.517 2.992.018 2.754 1.715 4.239c1.697 1.484 3.478 1.492 3.478 1.492s.927 1.959 3.652 1.959c2.724 0 3.651-1.96 3.651-1.96s1.845-.269 3.478-1.491c1.634-1.223 1.59-4.239 1.59-4.239s1.642-.659 1.642-2.992-1.798-3.074-1.798-3.074.256-1.24 0-2.372c-.257-1.132-1.403-1.82-1.403-1.82"/><path stroke="#000" stroke-linecap="round" stroke-linejoin="round" stroke-miterlimit="10" stroke-width="2" d="M18.775 13.1s-1.163 1.23-2.598 1.23m-2.696-1.23s1.162 1.23 2.597 1.23m6.172 3.236c0 1.286-1.103 2.327-2.464 2.327m-2.558-2.327c0 1.286 1.103 2.327 2.463 2.327m-4.632-2.327c0 1.286-1.103 2.327-2.464 2.327m-2.558-2.327c0 1.286 1.103 2.327 2.464 2.327m6.123 4.046c-.464.617-1.404 1.04-2.489 1.04m-2.65-1.116c.442.658 1.415 1.115 2.543 1.115m-2.566-.956c0 .551-.342 1.049-.888 1.398m6.077-1.398c0 .602.406 1.138 1.04 1.488"/><path stroke="#000" stroke-linecap="round" stroke-linejoin="round" stroke-miterlimit="10" stroke-width="2" d="M10.405 18.965c0 1.052-.738 1.94-1.752 2.229m2.463-8.11c0 1.376-1.103 2.492-2.464 2.492m11.958-2.492c0 1.376 1.103 2.492 2.464 2.492m-1.185 3.39c0 1.004.674 1.86 1.618 2.186"/></svg>