<svg xmlns="http://www.w3.org/2000/svg" viewBox="0 0 42 50">
  <path xmlns="http://www.w3.org/2000/svg" fill="#B22EC8" d="M7.625 15.282s-2.15 1.29-2.63 3.413c-.478 2.123 0 4.447 0 4.447s-3.37 1.39-3.37 5.765c0 4.374 2.843 5.61 2.843 5.61s.034 5.163 3.216 7.947c3.183 2.784 6.522 2.798 6.522 2.798s1.737 3.673 6.846 3.673 6.846-3.673 6.846-3.673 3.459-.505 6.522-2.798c3.063-2.291 2.98-7.946 2.98-7.946s3.08-1.236 3.08-5.611-3.372-5.764-3.372-5.764.48-2.325 0-4.448c-.481-2.122-2.63-3.413-2.63-3.413"/>
  <path xmlns="http://www.w3.org/2000/svg" fill="#B22EC8" d="M37.207 21.857c0-8.933-7.242-11.449-16.174-11.449-8.931 0-16.173 2.517-16.173 11.449 0 8.931 7.242 16.173 16.173 16.173 8.932 0 16.174-7.242 16.174-16.173Z"/>
  <path xmlns="http://www.w3.org/2000/svg" fill="#6A107A" d="M21.547 48.923s4.374-3.058 4.088-10.092c1.88-1.957 2.464-4.586.756-7.781 2.886-4.113 2.586-8.563-.867-11.937 1.423-2.053.678-3.831-.93-5.167 0 0 4.63 2.27 8.175-.976 0 0 7.453 5.358 4.339 10.172 0 0 8.228 5.561.291 11.375 0 0 1.16 8.863-9.3 10.709 0 0-2.753 3.117-6.552 3.697Z"/>
  <path xmlns="http://www.w3.org/2000/svg" fill="currentColor" d="M37.483 3.385C33.925 19.991 23.004 14.33 21.52 11.41c-1.483-2.92-.05-14.548 15.963-8.025v.001Z"/>
  <path xmlns="http://www.w3.org/2000/svg" fill="currentColor" d="M4.62 3.385C8.178 19.991 19.1 14.33 20.583 11.41c1.484-2.92.05-14.548-15.963-8.025v.001Z"/>
  <path xmlns="http://www.w3.org/2000/svg" stroke="#000" stroke-linecap="round" stroke-linejoin="round" stroke-miterlimit="10" stroke-width="2" d="M37.483 3.385C33.925 19.991 23.004 14.33 21.52 11.41c-1.483-2.92-.05-14.548 15.963-8.025v.001Z"/>
  <path xmlns="http://www.w3.org/2000/svg" stroke="#000" stroke-linecap="round" stroke-linejoin="round" stroke-miterlimit="10" stroke-width="2" d="M28.977 6.745c-2.609 1.002-5.95 2.613-7.43 4.713M4.62 3.385C8.178 19.991 19.1 14.33 20.583 11.41c1.484-2.92.05-14.548-15.963-8.025v.001Z"/>
  <path xmlns="http://www.w3.org/2000/svg" stroke="#000" stroke-linecap="round" stroke-linejoin="round" stroke-miterlimit="10" stroke-width="2" d="M13.127 6.745c2.609 1.002 5.949 2.613 7.429 4.713M7.625 15.282s-2.15 1.29-2.63 3.413c-.478 2.123 0 4.447 0 4.447s-3.37 1.39-3.37 5.765c0 4.374 2.843 5.61 2.843 5.61s.034 5.163 3.216 7.947c3.183 2.785 6.522 2.798 6.522 2.798s1.737 3.673 6.846 3.673 6.846-3.673 6.846-3.673 3.459-.505 6.522-2.798c3.063-2.291 2.98-7.946 2.98-7.946s3.08-1.236 3.08-5.611-3.372-5.764-3.372-5.764.48-2.325 0-4.448c-.481-2.122-2.63-3.413-2.63-3.413"/>
  <path xmlns="http://www.w3.org/2000/svg" stroke="#000" stroke-linecap="round" stroke-linejoin="round" stroke-miterlimit="10" stroke-width="2" d="M26.202 18.563s-2.18 2.305-4.87 2.305m-5.055-2.305s2.18 2.305 4.87 2.305m11.571 6.069c0 2.41-2.068 4.363-4.619 4.363m-4.797-4.363c0 2.41 2.069 4.363 4.62 4.363m-8.686-4.363c0 2.41-2.069 4.363-4.62 4.363m-4.797-4.363c0 2.41 2.068 4.363 4.62 4.363m11.482 7.585c-.87 1.157-2.634 1.95-4.668 1.95m-4.969-2.092c.83 1.234 2.653 2.091 4.768 2.091m-4.81-1.792c0 1.033-.641 1.965-1.665 2.62m11.394-2.62c0 1.127.76 2.133 1.95 2.79"/>
  <path xmlns="http://www.w3.org/2000/svg" stroke="#000" stroke-linecap="round" stroke-linejoin="round" stroke-miterlimit="10" stroke-width="2" d="M10.51 29.56c0 1.972-1.385 3.638-3.286 4.178m4.62-15.205c0 2.58-2.07 4.671-4.62 4.671m22.42-4.67c0 2.579 2.068 4.67 4.62 4.67m-2.222 6.356c0 1.883 1.264 3.488 3.034 4.1"/>
</svg>
