<svg viewBox="0 0 22 20" xmlns="http://www.w3.org/2000/svg">
  <path xmlns="http://www.w3.org/2000/svg" d="M20.945.765a1.552 1.552 0 0 0-1.572-.244L1.456 7.754a1.543 1.543 0 0 0 .078 2.884L5.4 11.98l2.095 6.926c.004.014.017.023.023.036a.488.488 0 0 0 .319.293c.01.004.017.013.027.015h.006l.003.001a.449.449 0 0 0 .233-.012c.008-.002.016-.002.025-.005a.497.497 0 0 0 .191-.122c.006-.007.016-.008.022-.014l3.013-3.326 4.397 3.405c.267.21.596.322.935.322.734 0 1.367-.514 1.518-1.23L21.469 2.25a1.533 1.533 0 0 0-.524-1.486v.001ZM8.588 13.295l-.707 3.437-1.475-4.878 7.315-3.81-4.997 4.998a.498.498 0 0 0-.136.253Zm8.639 4.772a.54.54 0 0 1-.347.4.525.525 0 0 1-.514-.079L11.603 14.7a.5.5 0 0 0-.676.06L8.83 17.07l.706-3.427 7.189-7.19a.5.5 0 0 0-.584-.797L5.778 11.054 1.861 9.692A.526.526 0 0 1 1.5 9.2a.532.532 0 0 1 .334-.518L19.748 1.45a.536.536 0 0 1 .558.086.523.523 0 0 1 .182.518l-3.261 16.015Z" fill="currentColor"/>
</svg>
