<svg viewBox="0 0 22 16" xmlns="http://www.w3.org/2000/svg">
  <path xmlns="http://www.w3.org/2000/svg" d="m14.206 7.69-4.5-3a.375.375 0 0 0-.581.31v6a.365.365 0 0 0 .197.328.421.421 0 0 0 .178.047.337.337 0 0 0 .206-.066l4.5-3a.366.366 0 0 0 0-.618Zm-4.331 2.607V5.703L13.325 8l-3.45 2.297Zm10.734-7.66a1.914 1.914 0 0 0-1.134-1.274C16.306.143 11.215.163 11 .163c-.216 0-5.306-.02-8.475 1.2a1.913 1.913 0 0 0-1.134 1.275C1.156 3.547.875 5.216.875 8c0 2.784.281 4.453.516 5.363a1.913 1.913 0 0 0 1.134 1.275c3.169 1.218 8.26 1.2 8.475 1.2h.066c.646 0 5.4-.038 8.409-1.2a1.914 1.914 0 0 0 1.134-1.275c.235-.91.516-2.579.516-5.363 0-2.784-.281-4.453-.516-5.362Zm-.73 10.538a1.123 1.123 0 0 1-.676.76c-3.037 1.171-8.147 1.153-8.203 1.153-.056 0-5.166.018-8.203-1.153a1.125 1.125 0 0 1-.675-.76C1.897 12.303 1.625 10.7 1.625 8c0-2.7.272-4.303.497-5.175a1.125 1.125 0 0 1 .675-.76C5.834.895 10.944.914 11 .914c.056 0 5.166-.02 8.203 1.153a1.124 1.124 0 0 1 .675.76c.225.871.497 2.474.497 5.174s-.272 4.303-.497 5.175Z" fill="currentColor"/>
</svg>
